<svg xmlns="http://www.w3.org/2000/svg" viewBox="0 0 355.04 367.69"><defs><style>.cls-1{isolation:isolate;}.cls-2{fill:#85c7e0;}.cls-3{fill:#a4d3ea;}.cls-4{fill:#c7eaff;}.cls-5{fill:#e9f8ff;}.cls-12,.cls-6{fill:none;stroke-miterlimit:10;}.cls-6{stroke:#3968b5;stroke-width:0.73px;}.cls-7{fill:#54b0cc;}.cls-8{fill:#eac37d;}.cls-9{fill:#f4d598;}.cls-10{fill:#d38d48;}.cls-11{fill:#dda15f;}.cls-12{stroke:#fff;stroke-linecap:round;stroke-width:1.24px;}.cls-13{fill:#fff4c0;}.cls-14{fill:#c69c7f;}.cls-15{fill:#7d7d7d;}.cls-16{fill:#aa8366;}.cls-17{fill:#ffc7dd;}.cls-18{fill:#ff64a0;}.cls-19{fill:#ff8db3;}.cls-20{fill:#fff;}.cls-21{fill:#7fd9e5;}.cls-22{fill:#45a1a3;}.cls-23{fill:#a2efff;}.cls-24{fill:#5fc1c9;}.cls-25{fill:#c0b3ff;}.cls-26{fill:#c4b5f7;}.cls-27{fill:#e2d7ff;}.cls-28{fill:#d7ccff;}.cls-29{fill:#5f577f;}.cls-30{fill:#9891c1;}.cls-31{fill:#eab18b;}.cls-32{fill:#ffb3c3;}.cls-33{fill:#d1657f;}.cls-34{fill:#3d556d;}.cls-35{fill:#3477c6;}.cls-36{fill:#ff6680;}.cls-37{fill:#d89e7d;}.cls-38{fill:#51443f;}.cls-39{fill:#d39779;opacity:0.4;mix-blend-mode:multiply;}.cls-40{fill:#6d5e57;}.cls-41{fill:#b481fc;}.cls-42{fill:#878787;}.cls-43{fill:#37dbd2;}.cls-44{fill:#ababab;}.cls-45{fill:#8c8c8c;}.cls-46{fill:#ffed45;}.cls-47{fill:#8e77ad;}.cls-48{fill:#f0e6ff;}.cls-49{fill:#baa1e2;}.cls-50{fill:#66557f;}.cls-51{fill:#48e0ce;}.cls-52{fill:#c7fff6;}.cls-53{fill:#7dffec;}.cls-54{fill:#30bfaa;}.cls-55{fill:#ffd9ea;}.cls-56{fill:#ffbdd6;}.cls-57{fill:#636363;}.cls-58{fill:#493a60;}.cls-59{fill:#75f2da;}.cls-60{fill:#44b7a1;}.cls-61{fill:#5eeacf;}.cls-62{fill:#2ea08a;}.cls-63{fill:#e26998;}.cls-64{fill:#6c3bb2;}.cls-65{fill:#9262dd;}.cls-66{fill:#8548cc;}.cls-67{fill:#6034a5;}</style></defs><title>smart school_1</title><g class="cls-1"><g id="Layer_2" data-name="Layer 2"><g id="OBJECTS"><path class="cls-2" d="M313.64,306.71l-69.24-43L242.5,267l1.12,4.1s60.94,35.32,61.08,35.32,4.67.5,4.67.5Z"/><polygon class="cls-2" points="339.75 252.41 297.66 228.62 256.26 246.06 253.62 249.25 298.57 253.92 337.98 253.92 339.75 252.41"/><path class="cls-3" d="M251.78,250.54S316.91,229.48,355,233.92l-36.92-20.67-70.69,22.16Z"/><polygon class="cls-2" points="323.08 278.74 253.35 247.75 247.66 258.01 247.66 259.55 298.81 282.38 318.48 289.08 323.08 278.74"/><path class="cls-4" d="M251.78,250.54S314,222.23,350.66,211L319.6,191.9l-77.87,46.53Z"/><path class="cls-5" d="M251.78,250.54s63.11-44.25,99.81-55.47l-31-19.11-78.81,62.47Z"/><polygon class="cls-3" points="243.62 265.06 319.6 294.11 323.08 278.74 247.66 258.01 243.62 265.06"/><polygon class="cls-3" points="240.43 270.63 310.01 311.43 313.64 306.71 242.67 266.72 240.43 270.63"/><polygon class="cls-2" points="214.04 366.28 198.35 359.78 234.15 270.97 236.2 269.42 237.19 273.11 217.77 363.19 214.04 366.28"/><polygon class="cls-3" points="236.2 269.42 240.43 270.63 220.99 366.69 214.04 366.28 236.2 269.42"/><polygon class="cls-2" points="192.22 366.42 185.47 363.45 230.71 268.69 233.65 268.69 234.15 270.97 195.67 366.42 192.22 366.42"/><polygon class="cls-3" points="233.65 268.69 192.22 366.42 197.13 367.69 236.2 269.42 233.65 268.69"/><polygon class="cls-2" points="174.11 359.78 145.89 342.87 211.56 268.45 227.23 267.02 209.65 315.91 178.88 359.78 174.11 359.78"/><polygon class="cls-3" points="227.23 267.02 233.65 268.69 186.78 366.42 174.11 359.78 227.23 267.02"/><polygon class="cls-3" points="227.75 266.49 142.36 353.03 20.36 274.91 126.35 199.93 227.75 266.49"/><polygon class="cls-4" points="227.75 266.49 145.89 323.68 16.53 247.75 126.35 199.93 227.75 266.49"/><polygon class="cls-6" points="228.26 267.15 240.43 270.63 248.38 256.75 240.82 257.95 224.02 264.58 224.48 265.94 228.26 267.15"/><polygon class="cls-7" points="226.41 266.52 231.32 268.03 240.43 270.63 249.54 254.62 231.19 262.88 226.41 266.52"/><polygon class="cls-3" points="249.54 253.68 338.34 258.59 339.75 252.41 253.62 249.25 249.54 253.68"/><polygon class="cls-8" points="240.43 256.02 134.86 286.49 2.9 210.3 108.47 179.83 240.43 256.02"/><polygon class="cls-9" points="240.43 256.02 346 164.59 214.04 88.4 108.47 179.83 240.43 256.02"/><polygon class="cls-10" points="240.43 263.63 240.43 256.02 134.86 286.49 134.86 294.11 240.43 263.63"/><polygon class="cls-11" points="134.86 294.11 2.9 217.92 2.9 210.3 134.86 286.49 134.86 294.11"/><polygon class="cls-10" points="240.43 256.02 346 164.59 346 172.21 240.43 263.63 240.43 256.02"/><line class="cls-12" x1="215.05" y1="32.8" x2="215.05" y2="95.78"/><path class="cls-13" d="M215.79,35.25c4.28-.07,7.72-2.34,7.67-5.07l2-21.41L206,9.11l2,21.32C208,33.16,211.51,35.32,215.79,35.25Z"/><path class="cls-14" d="M215.8,31.22c4.48-.07,8.08-2.34,8-5.08l.67-7.26c-.57,6.17-17.07,6-17.6.34l.68,7.17C207.64,29.13,211.31,31.29,215.8,31.22Z"/><path class="cls-15" d="M215.61,4c-5.37.07-9.68,2.34-9.63,5.07s4.46,4.9,9.83,4.83,9.69-2.34,9.63-5.08S221,4,215.61,4Z"/><path class="cls-16" d="M215.82,15.72c5.9-.09,10.62-3.22,10.56-7V7.08L205,7.55V9.07C205.11,12.84,209.93,15.81,215.82,15.72Z"/><path class="cls-14" d="M215.6.56c-5.89.1-10.62,3.23-10.56,7s4.89,6.74,10.78,6.65,10.62-3.23,10.56-7S221.5.47,215.6.56Z"/><path class="cls-16" d="M215.81,13c5.06-.08,9.13-2.77,9.07-6V5.6L206.54,6V7.32C206.6,10.55,210.74,13.11,215.81,13Z"/><ellipse class="cls-14" cx="215.71" cy="5.86" rx="9.17" ry="5.86" transform="translate(-0.07 3.46) rotate(-0.92)"/><line class="cls-12" x1="338.52" y1="102.84" x2="338.52" y2="161.5"/><g class="cls-1"><polygon class="cls-17" points="336.25 99.8 338.3 98.61 338.62 98.79 336.57 99.98 336.25 99.8"/><polygon class="cls-17" points="338.37 101.02 340.41 99.83 340.71 100 338.66 101.19 338.37 101.02"/><path class="cls-18" d="M338.66,101.19l0,8.1a1.14,1.14,0,0,1-.09.48h0a.67.67,0,0,1-.26.29l2-1.19a.57.57,0,0,0,.21-.2s0,0,0-.08h0l0-.06s0,0,0-.06a.64.64,0,0,1,0-.07s0,0,0-.06a.11.11,0,0,1,0,0v-.06s0,0,0-.06v-.06h0l0-8.1Z"/><polygon class="cls-18" points="338.38 97.44 340.43 96.25 340.41 99.83 338.37 101.02 338.38 97.44"/><path class="cls-17" d="M342,94.59h0a2.51,2.51,0,0,1-.73,0h0a3.55,3.55,0,0,1-.81-.17h0a5.62,5.62,0,0,1-.88-.4,7,7,0,0,1-.86-.6l0,0a8.07,8.07,0,0,1-.8-.75h0a9.06,9.06,0,0,1-.74-.88h0a10,10,0,0,1-.63-1l0,0a9.7,9.7,0,0,1-.51-1h0c-.15-.36-.28-.71-.39-1.07v0a8.42,8.42,0,0,1-.25-1.08h0a6.27,6.27,0,0,1,0-2v0a3.31,3.31,0,0,1,.25-.77h0a2.75,2.75,0,0,1,.26-.4,2.18,2.18,0,0,1,.67-.65l-2.05,1.19a2.18,2.18,0,0,0-.67.65l-.09.09a2.11,2.11,0,0,0-.16.3h0c0,.07-.07.14-.1.22s-.05.15-.07.23l-.06.22s0,.07,0,.1v0a.3.3,0,0,0,0,.1l0,.2,0,.21a1.48,1.48,0,0,1,0,.21v.21h0v.2c0,.07,0,.14,0,.21a748947252457.94,748947252457.94,0,0,1,0,.42l0,.22h0a1.18,1.18,0,0,1,0,.2,1.74,1.74,0,0,0,.05.22,1.55,1.55,0,0,0,.05.23l.06.23a1.8,1.8,0,0,1,0,.19v0a2,2,0,0,0,.07.23,2,2,0,0,0,.08.22,1.8,1.8,0,0,0,.08.21,2,2,0,0,0,.08.22s0,.11.08.17h0v0a2,2,0,0,0,.1.21l.11.23.13.26.17.29,0,0,0,0c.11.18.22.36.34.54L335,93h0l.2.25.16.21c.06.07.12.13.17.2a1.54,1.54,0,0,1,.17.19l0,0v0l.13.13.19.18.19.18.19.17.1.08,0,0,.07.06.19.14.19.14.19.12.18.11,0,0,.14.07.18.1.18.08.17.08.18.06h0l.13,0,.19,0,.17,0,.2,0h.62l.25,0h0l.29-.08a2.37,2.37,0,0,0,.36-.17l2-1.19A2,2,0,0,1,342,94.59Z"/><path class="cls-19" d="M343.4,93.63c0,3.39-2.18,5-5,3.81V101l.29.17,0,8.1c0,.77-.54,1.07-1.21.69a2.66,2.66,0,0,1-1.2-2.08l0-8.1.32.18V96.4a13.11,13.11,0,0,1-5-9.59c0-3.75,2.65-5.28,5.92-3.39A13,13,0,0,1,343.4,93.63Zm-5.93,1.6c2.41,1.39,4.37.28,4.38-2.5a9.58,9.58,0,0,0-4.35-7.52c-2.39-1.38-4.36-.28-4.37,2.49a9.61,9.61,0,0,0,4.34,7.53"/><path class="cls-17" d="M345.45,92.18c0-.1,0-.19,0-.29l0-.29,0-.28c0-.1,0-.2,0-.3h0c0-.09,0-.19,0-.28s0-.21-.07-.31,0-.2-.07-.31,0-.21-.08-.31l-.07-.25v-.06c0-.11-.07-.21-.1-.31s-.07-.2-.11-.3-.07-.2-.1-.29l-.12-.29-.09-.22v0l0,0c0-.1-.09-.19-.13-.29l-.15-.31c-.06-.12-.12-.24-.19-.36s-.14-.25-.21-.38l0-.06a.56.56,0,0,1-.05-.08c-.14-.24-.29-.47-.44-.7l-.37-.53h0l-.27-.35a3.11,3.11,0,0,0-.23-.28l-.22-.27-.23-.25-.05-.05,0,0-.18-.19-.25-.24a3.07,3.07,0,0,0-.26-.25l-.26-.23-.13-.1,0,0-.1-.08-.26-.2-.26-.18-.25-.17-.25-.15-.06,0-.18-.11-.25-.12-.23-.12-.24-.1-.24-.08,0,0h0l-.17,0-.25-.07-.24,0-.26,0h-.84l-.34,0h0a2.85,2.85,0,0,0-.39.11,2.62,2.62,0,0,0-.48.22L333.31,83a2.7,2.7,0,0,1,.87-.33h0a3.57,3.57,0,0,1,1-.06h0a5.06,5.06,0,0,1,1.09.23h0a6.57,6.57,0,0,1,1.19.55,8.76,8.76,0,0,1,1.17.81l0,0a10.27,10.27,0,0,1,1.09,1v0a11.78,11.78,0,0,1,1,1.2h0a14.06,14.06,0,0,1,.86,1.31l0,.07a13.57,13.57,0,0,1,.7,1.37v0a12.09,12.09,0,0,1,.53,1.45v0a11.38,11.38,0,0,1,.34,1.46h0a7.79,7.79,0,0,1,.11,1.43,6.3,6.3,0,0,1-.12,1.27v0a5,5,0,0,1-.33,1v0a4.05,4.05,0,0,1-.35.53,3.13,3.13,0,0,1-.9.88l2-1.19a3,3,0,0,0,.91-.88s.08-.07.11-.11a3.11,3.11,0,0,0,.22-.4v0a2.55,2.55,0,0,0,.13-.29,3,3,0,0,0,.1-.32,2.17,2.17,0,0,0,.08-.3l0-.12v0l0-.12c0-.09,0-.19,0-.29l0-.28c0-.09,0-.18,0-.28v-.56Z"/></g><path class="cls-20" d="M336.32,165.07h-.12a.62.62,0,0,1-.49-.72c.2-1,1.11-3.27,2.66-3.49,1.07-.16,2,.63,2.9,2.32a.62.62,0,0,1-1.1.56c-.57-1.11-1.16-1.73-1.63-1.65-.65.09-1.41,1.44-1.62,2.49A.6.6,0,0,1,336.32,165.07Z"/><line class="cls-12" x1="298.29" y1="78.74" x2="298.29" y2="139.08"/><polygon class="cls-21" points="305.64 78.41 305.64 52.42 291.12 60.81 291.12 86.8 305.64 78.41"/><polygon class="cls-22" points="304.84 58.61 304.84 54.13 291.93 61.59 291.93 66.06 304.84 58.61"/><polygon class="cls-22" points="294.51 69.41 294.51 66.88 292.44 68.08 292.44 70.61 294.51 69.41"/><polygon class="cls-22" points="297.1 67.89 297.1 65.36 295.02 66.56 295.02 69.09 297.1 67.89"/><polygon class="cls-22" points="299.69 66.38 299.69 63.84 297.61 65.04 297.61 67.58 299.69 66.38"/><polygon class="cls-22" points="302.27 64.86 302.27 62.33 300.2 63.53 300.2 66.06 302.27 64.86"/><polygon class="cls-22" points="304.86 63.34 304.86 60.81 302.78 62.01 302.78 64.54 304.86 63.34"/><polygon class="cls-22" points="294.51 72.88 294.51 70.34 292.44 71.54 292.44 74.08 294.51 72.88"/><polygon class="cls-22" points="297.1 71.36 297.1 68.83 295.02 70.03 295.02 72.56 297.1 71.36"/><polygon class="cls-22" points="299.69 69.84 299.69 67.31 297.61 68.51 297.61 71.04 299.69 69.84"/><polygon class="cls-22" points="302.27 68.32 302.27 65.79 300.2 66.99 300.2 69.52 302.27 68.32"/><polygon class="cls-22" points="294.51 76.34 294.51 73.81 292.44 75.01 292.44 77.54 294.51 76.34"/><polygon class="cls-22" points="297.1 74.82 297.1 72.29 295.02 73.49 295.02 76.02 297.1 74.82"/><polygon class="cls-22" points="299.69 73.31 299.69 70.77 297.61 71.97 297.61 74.5 299.69 73.31"/><polygon class="cls-22" points="302.27 71.79 302.27 69.26 300.2 70.46 300.2 72.99 302.27 71.79"/><polygon class="cls-22" points="304.86 70.27 304.86 64.46 302.78 65.66 302.78 71.47 304.86 70.27"/><polygon class="cls-22" points="294.51 79.8 294.51 77.27 292.44 78.47 292.44 81 294.51 79.8"/><polygon class="cls-22" points="297.1 78.29 297.1 75.75 295.02 76.95 295.02 79.49 297.1 78.29"/><polygon class="cls-22" points="299.69 76.77 299.69 74.24 297.61 75.44 297.61 77.97 299.69 76.77"/><polygon class="cls-22" points="302.27 75.25 302.27 72.72 300.2 73.92 300.2 76.45 302.27 75.25"/><polygon class="cls-22" points="299.69 80.15 299.69 77.62 292.44 81.94 292.44 84.47 299.69 80.15"/><polygon class="cls-22" points="302.27 78.72 302.27 76.19 300.2 77.39 300.2 79.92 302.27 78.72"/><polygon class="cls-22" points="304.86 77.2 304.86 71.33 302.78 72.53 302.78 78.4 304.86 77.2"/><polygon class="cls-23" points="291.12 60.81 289.75 60.02 304.28 51.64 305.64 52.42 291.12 60.81"/><polygon class="cls-24" points="289.75 60.02 289.75 86.01 291.12 86.8 291.12 60.81 289.75 60.02"/><path class="cls-20" d="M296.28,142.8h-.12a.61.61,0,0,1-.49-.72c.2-1,1.11-3.27,2.66-3.49,1.07-.16,2,.63,2.9,2.32a.61.61,0,0,1-.27.83.62.62,0,0,1-.83-.27c-.58-1.12-1.16-1.73-1.63-1.66-.65.1-1.42,1.44-1.62,2.5A.61.61,0,0,1,296.28,142.8Z"/><line class="cls-12" x1="255.26" y1="54.26" x2="255.26" y2="113.91"/><path class="cls-25" d="M265.15,24.12l-.36-.21,0,0h0a.58.58,0,0,0-.57,0L244.43,35.29a2,2,0,0,0-1,1.71V51.3a1,1,0,0,0,.46.84h0l0,0,.05,0,.36.21.2-.47-.16-.1,19.09-11a2,2,0,0,0,1-1.77V24.49l.65-.07Z"/><path class="cls-26" d="M278.55,49.21h0v-.46l-.64.12v.24l-11.5-6.65a1.91,1.91,0,0,0-1.88,0L244.94,53.77a2.18,2.18,0,0,0-.07-.31l-.34-.17v.5h0a.66.66,0,0,0,.34.58l11.83,6.84a1.81,1.81,0,0,0,1.8,0l19.72-11.39A.66.66,0,0,0,278.55,49.21Z"/><path class="cls-27" d="M244.87,52.68l19.66-11.34a1.86,1.86,0,0,1,1.88,0l11.81,6.81a.68.68,0,0,1,0,1.17L258.5,60.7a1.81,1.81,0,0,1-1.8,0l-11.83-6.83A.69.69,0,0,1,244.87,52.68Z"/><path class="cls-28" d="M243.84,51.54V37.23a2,2,0,0,1,1-1.71l19.73-11.39a.61.61,0,0,1,.91.52v15a2,2,0,0,1-1,1.77l-19.1,11A1,1,0,0,1,243.84,51.54Z"/><polygon class="cls-29" points="244.75 51.99 244.75 36.35 264.8 24.75 264.8 40.39 244.75 51.99"/><polygon class="cls-30" points="249.89 52.55 248.73 53.23 248.07 52.85 249.24 52.17 249.89 52.55"/><polygon class="cls-30" points="251.75 53.36 250.37 54.17 249.12 53.45 250.5 52.65 251.75 53.36"/><polygon class="cls-30" points="253.49 52.35 252.1 53.16 250.85 52.44 252.24 51.64 253.49 52.35"/><polygon class="cls-30" points="255.22 51.34 253.83 52.15 252.59 51.44 253.97 50.63 255.22 51.34"/><polygon class="cls-30" points="256.95 50.33 255.57 51.14 254.32 50.43 255.71 49.62 256.95 50.33"/><polygon class="cls-30" points="258.69 49.32 257.3 50.13 256.06 49.42 257.44 48.61 258.69 49.32"/><polygon class="cls-30" points="260.42 48.31 259.04 49.12 257.79 48.41 259.18 47.6 260.42 48.31"/><polygon class="cls-30" points="262.16 47.3 260.77 48.11 259.52 47.4 260.91 46.59 262.16 47.3"/><polygon class="cls-30" points="263.89 46.3 262.51 47.1 261.26 46.39 262.65 45.58 263.89 46.3"/><polygon class="cls-30" points="257.78 53.64 256.39 54.44 255.15 53.73 256.53 52.92 257.78 53.64"/><polygon class="cls-30" points="259.51 52.63 258.13 53.43 256.88 52.72 258.27 51.91 259.51 52.63"/><polygon class="cls-30" points="261.25 51.62 259.86 52.42 258.62 51.71 260 50.9 261.25 51.62"/><polygon class="cls-30" points="262.98 50.61 261.6 51.41 260.35 50.7 261.74 49.89 262.98 50.61"/><polygon class="cls-30" points="264.72 49.6 263.33 50.41 262.08 49.69 263.47 48.88 264.72 49.6"/><polygon class="cls-30" points="267.14 48.19 265.06 49.4 263.82 48.68 265.9 47.47 267.14 48.19"/><polygon class="cls-30" points="265.62 45.29 264.25 46.09 263 45.37 264.37 44.58 265.62 45.29"/><polygon class="cls-30" points="267.39 44.26 266.02 45.06 264.77 44.34 266.14 43.55 267.39 44.26"/><polygon class="cls-30" points="253.39 54.3 252 55.1 250.76 54.39 252.14 53.59 253.39 54.3"/><polygon class="cls-30" points="255.13 53.29 253.74 54.1 252.49 53.38 253.88 52.58 255.13 53.29"/><polygon class="cls-30" points="256.67 56.17 255.28 56.98 254.03 56.27 255.42 55.46 256.67 56.17"/><polygon class="cls-30" points="258.4 55.16 257.01 55.97 255.77 55.26 257.15 54.45 258.4 55.16"/><polygon class="cls-30" points="268.78 49.12 258.78 54.94 257.54 54.23 267.54 48.41 268.78 49.12"/><polygon class="cls-30" points="256.86 52.28 255.47 53.09 254.23 52.37 255.61 51.57 256.86 52.28"/><polygon class="cls-30" points="258.59 51.27 257.21 52.08 255.96 51.36 257.35 50.56 258.59 51.27"/><polygon class="cls-30" points="260.33 50.26 258.94 51.07 257.69 50.35 259.08 49.55 260.33 50.26"/><polygon class="cls-30" points="262.06 49.25 260.68 50.06 259.43 49.34 260.82 48.54 262.06 49.25"/><polygon class="cls-30" points="263.8 48.24 262.41 49.05 261.16 48.34 262.55 47.53 263.8 48.24"/><polygon class="cls-30" points="265.53 47.23 264.14 48.04 262.9 47.33 264.29 46.52 265.53 47.23"/><polygon class="cls-30" points="269.01 45.21 265.89 47.02 264.64 46.31 267.76 44.5 269.01 45.21"/><polygon class="cls-30" points="270.65 46.15 267.36 48.06 266.11 47.35 269.4 45.43 270.65 46.15"/><polygon class="cls-30" points="272.29 47.09 269 49 268.38 48.64 271.66 46.73 272.29 47.09"/><polygon class="cls-30" points="271.2 47.72 270.08 48.37 268.84 47.65 269.95 47.01 271.2 47.72"/><polygon class="cls-30" points="256.07 54.63 253.64 56.04 252.4 55.33 254.82 53.92 256.07 54.63"/><polygon class="cls-30" points="251.48 51.63 250.31 52.31 249.65 51.93 250.82 51.25 251.48 51.63"/><polygon class="cls-30" points="253.06 50.71 251.89 51.39 251.24 51.01 252.4 50.33 253.06 50.71"/><polygon class="cls-30" points="254.65 49.78 253.48 50.46 252.82 50.09 253.99 49.41 254.65 49.78"/><polygon class="cls-30" points="256.23 48.86 255.06 49.54 254.4 49.17 255.57 48.49 256.23 48.86"/><polygon class="cls-30" points="257.81 47.94 256.64 48.62 255.99 48.24 257.15 47.57 257.81 47.94"/><polygon class="cls-30" points="259.4 47.02 258.23 47.7 257.57 47.32 258.74 46.64 259.4 47.02"/><polygon class="cls-30" points="260.98 46.1 259.81 46.78 259.16 46.4 260.32 45.72 260.98 46.1"/><polygon class="cls-30" points="262.56 45.18 261.4 45.86 260.74 45.48 261.91 44.8 262.56 45.18"/><polygon class="cls-30" points="264.15 44.26 262.98 44.93 262.32 44.56 263.49 43.88 264.15 44.26"/><polygon class="cls-30" points="265.73 43.33 264.56 44.01 263.91 43.64 265.07 42.96 265.73 43.33"/><path class="cls-20" d="M253.06,117.63h-.12a.63.63,0,0,1-.49-.73c.2-1,1.11-3.26,2.66-3.48,1.07-.17,2,.62,2.9,2.31a.62.62,0,0,1-.26.84.64.64,0,0,1-.84-.27c-.57-1.12-1.16-1.74-1.62-1.66-.66.09-1.42,1.44-1.62,2.5A.63.63,0,0,1,253.06,117.63Z"/><path class="cls-31" d="M223.66,91.6l-21.79,40.06-27.1,14.17a5.2,5.2,0,0,1-7.39-3.12,5.33,5.33,0,0,1,2.75-6.19l24.29-12.7L219,89.19c-.27-1.14-1.35-2.1-.93-3.11a18.63,18.63,0,0,0,.41-6.18c-.28-1.06,3.29-1.68,1.94,3.69.51.21,3.87-4.69,4.33-7.56a.57.57,0,0,1,.78-.44c1.76.65,6.07,2.54,5.63,5.19-.55,3.32-3.5,7.43-4.43,8.94A5,5,0,0,1,223.66,91.6Z"/><path class="cls-32" d="M189.35,140.49c.9-.77-1.22-13.41-3.16-12.82l-12.13,5.78c-5.05,2-3.7,8.78-2,11.22,1.32,1.85,4.4,2.17,8.24,0A75.25,75.25,0,0,1,189.35,140.49Z"/><path class="cls-33" d="M132.36,152c-1.53,1.22.18,13.22,4.42,11.88,2.63-1.88,3.14-6.22,3.14-6.22l-4.79-6.25A7.58,7.58,0,0,0,132.36,152Z"/><path class="cls-34" d="M175.3,225c-.46.94,0,1.11,0,1.28a118.48,118.48,0,0,0-2,14.09c-.1,2.47-2.83,3.16-5.85,3.42-.52-5.71-.72-13.79-.63-15.74s2.72-4.81,3.53-5.1S175.06,224.39,175.3,225Z"/><path class="cls-35" d="M177.61,188.06s29,3.27,30.9,10.1c2.25,8.22-26.5,20.4-28.58,23-.29-1.76-4.14-3.53-5.87-3,0,0,8.76-10.19,15.61-14-5.07,1.82-9.32,2-19.28.64-11.83-4.41-5.77-4.67-5.77-4.67l2-8Z"/><path class="cls-34" d="M191.46,210.55a80.83,80.83,0,0,1,7.75-2.85c1.65-.31,13,9.27,14.87,12.52-1.1,2.19-5.11,2.22-7.48.86l-6.9-4c-1.21-.7-4.48,1.33-4.48,1.33l-3.76-4Z"/><path class="cls-35" d="M145.74,186.77c-6.17,17.9,4.74,32.88,13,41.16a5.34,5.34,0,0,0,4.43,1.49c13.33-1.59,30.31-6.75,34.64-10,2.23-1.34-1.46-9.18-4-10s-18.8,5.66-23.5,6c-.67-7.31-.82-12.33-.82-12.33-1.45-9.43.05-7.78-4.07-9.72S148,183.79,145.74,186.77Z"/><path class="cls-36" d="M155.35,138.23c-5.87,3.07-12.89,4.66-14.68,10.08-1.46,4.41,1.78,11.77,1.91,21.09.07,5.61-.16,19.49-.25,26.38,7.54,9.13,29.12,4.3,38.72-6.55-3.26-13.93,3.22-43.6-5.3-52.23C172.79,135.43,165.62,132.88,155.35,138.23Z"/><path class="cls-31" d="M172.74,142.46c.5,3.47-3.56,6.93-9.07,7.71s-10.38-1.39-10.87-4.86,3.56-6.93,9.07-7.72S172.25,139,172.74,142.46Z"/><path class="cls-31" d="M157.71,130.8a40.85,40.85,0,0,1-1.92,9.94c1.91,3.66,11.13,6.59,12.87,2.71a11.51,11.51,0,0,1,1.59-6C171.94,135,157.71,130.8,157.71,130.8Z"/><path class="cls-37" d="M157.71,130.8s0,.94-.23,2.41a14.82,14.82,0,0,0,11.23,9.14,10.4,10.4,0,0,1,1.54-4.91C171.94,135,157.71,130.8,157.71,130.8Z"/><path class="cls-31" d="M172.5,111.05a24.27,24.27,0,0,1,4.29,10.15c-.11.76,1.32,2,1.42,5.08.07,2.24.22,6.79.3,9.11a1.91,1.91,0,0,1-1.33,1.9c-4.34,1.37-11.38,2.77-17.51-3.59,0,0-2.88-2.6-4.09-2.81s-6.51-5.4-7.14-10.09c-.66-5,1.09-12.87,11.29-14.23A14.33,14.33,0,0,1,172.5,111.05Z"/><path class="cls-38" d="M156.64,130.52c-1.22-.85-6-5.68-8.24-7.94,2.23,9.23,10.5,8.87,11.49,13.33l-.12-2.92-2.3-3.5Z"/><path class="cls-39" d="M157.06,127.09c-2.23-1.77-4.47.3-2.55,2.51.41.47,1.21.68,1.54,1.12.19.25.37.46.54.65a15.45,15.45,0,0,1,1.5,1.09,1.19,1.19,0,0,0,1.26-.63Z"/><path class="cls-31" d="M158.58,127c-1.57-2.37-4.34-1.09-3.2,1.6.25.58,1,1,1.13,1.54.9,2.64,1.92,2.76,2.79,2.08"/><path class="cls-40" d="M147.45,120.15c-.09-1.4-.75-3.45.92-5.38.74-5.82,5.53-8.22,10.7-8.85,5.59-.69,8.09,3.3,16.17-1,2.77,1.19.92,8.08-.89,8.82-.52.35-8.37,8.77-16.38,4.08,4.56,2.65.05,7.6,2,11.22-.76.46-1.64-2.19-2.95-1.94s0,1.79,0,1.79l2.7,4.11.12,2.92C158.8,131,150.05,132.66,147.45,120.15Z"/><path class="cls-31" d="M87.16,172.65l37.75-4.55,21.87-10.19a5.21,5.21,0,0,0,2.63-6.87c-1.17-2.62-3.17-3.85-5.79-2.68l-20.88,10.21-36.53,8.66c-1-3.07-5.2-1.86-7.25-3.81-1.43-1.2-2.86,2.65,1,3.51,1,.43-2.28,1-5,1s-2,6.94-1.09,7.89,9.84.47,11.6-.67A3.14,3.14,0,0,0,87.16,172.65Z"/><path class="cls-32" d="M132.33,152c1.79-.61,6.21,9.83,4.43,11.88l11.74-6.22c4.81-2.52,2.18-10.39.18-12.63-1.52-1.7-4.62-1.67-8.19.92C136.69,148.72,132.33,152,132.33,152Z"/><path class="cls-41" d="M158.87,101.57a3.73,3.73,0,0,0,3.78-3.2c-.39-2.05,1.24-4.57,1.24-4.57l-9.91.08a8.22,8.22,0,0,1,1.13,4.55A3.61,3.61,0,0,0,158.87,101.57Z"/><path class="cls-42" d="M158.93,90.7c-2.74,0-5,1.43-5,3.18s2.23,3.17,5,3.16,5-1.43,5-3.18S161.67,90.69,158.93,90.7Z"/><path class="cls-43" d="M158.92,99.31c3.12,0,5.64-1.63,5.64-3.62l.09-6.75L153.36,89l-.09,6.69C153.27,97.71,155.81,99.32,158.92,99.31Z"/><path class="cls-44" d="M159,85.41c-3.12,0-5.64,1.63-5.63,3.62s2.53,3.6,5.65,3.6S164.65,91,164.65,89,162.11,85.4,159,85.41Z"/><path class="cls-45" d="M167.09,91.34v-.07h0S167.09,91.31,167.09,91.34Z"/><path class="cls-46" d="M173.75,71.29c.1-7.35-6.29-14.57-14.27-14.67S145,63.55,144.85,70.91c0,.12,0,.24,0,.36h0c-.17,12.69,8.59,15,8.54,18.83h0s0,.05,0,.08c0,1.83,2.53,3.32,5.65,3.31s5.53-1.45,5.6-3.24h0c0-3.81,8.93-5.9,9.1-18.59h0C173.73,71.54,173.75,71.42,173.75,71.29Z"/><path class="cls-20" d="M166.82,62.87a2.51,2.51,0,1,1-2.48-2.55A2.5,2.5,0,0,1,166.82,62.87Z"/><line class="cls-12" x1="134.86" y1="220.02" x2="134.86" y2="278.84"/><polygon class="cls-47" points="123.03 196.08 137.19 187.91 137.19 195.44 123.03 200.53 123.03 196.08"/><path class="cls-48" d="M123.29,196.28l13.5-7.8a11.7,11.7,0,0,0,2.83,1.64L126,198s-2.85-.29-2.85-1.7Z"/><path class="cls-49" d="M137.19,187.91l-14,8.06c.15,1.34,2.73,1.57,2.73,1.57l13.95-8,.25.14L126,198.12s-3.26-.27-3.26-2.2l14.15-8.17Z"/><polygon class="cls-47" points="126.01 221.06 126.02 197.8 140.17 189.63 140.16 212.89 126.01 221.06"/><path class="cls-50" d="M122.76,195.92c.22,1.65,3.26,1.88,3.26,1.88v23.26s-3-.23-3.26-1.88Z"/><polygon class="cls-51" points="128.21 195.04 142.36 186.88 142.36 194.4 128.2 199.49 128.21 195.04"/><path class="cls-52" d="M128.46,195.25l13.5-7.8a12.11,12.11,0,0,0,2.83,1.63L131.18,197s-2.84-.3-2.84-1.71Z"/><path class="cls-53" d="M142.36,186.88l-13.94,8.05c.15,1.34,2.73,1.57,2.73,1.57l13.94-8,.25.14-14.15,8.49s-3.26-.27-3.26-2.21l14.16-8.16Z"/><polygon class="cls-51" points="131.18 220.02 131.19 196.76 145.34 188.6 145.33 211.85 131.18 220.02"/><path class="cls-54" d="M127.93,194.88c.22,1.65,3.26,1.88,3.26,1.88V220s-3-.23-3.26-1.88Z"/><polygon class="cls-19" points="129.84 200.88 143.99 192.72 143.99 200.24 129.83 205.33 129.84 200.88"/><path class="cls-55" d="M130.09,201.09l13.5-7.8a12.11,12.11,0,0,0,2.83,1.63l-13.61,7.91s-2.85-.3-2.85-1.71Z"/><path class="cls-56" d="M144,192.72l-13.94,8.05c.15,1.34,2.72,1.57,2.72,1.57l13.95-8.05.25.15-14.15,8.49s-3.26-.28-3.26-2.21l14.15-8.16Z"/><polygon class="cls-19" points="132.81 225.86 132.82 202.6 146.97 194.44 146.96 217.69 132.81 225.86"/><path class="cls-18" d="M129.56,200.72c.22,1.65,3.26,1.88,3.26,1.88v23.26s-3-.23-3.26-1.88Z"/><path class="cls-20" d="M133.06,282.46h-.12a.63.63,0,0,1-.49-.73c.2-1,1.11-3.26,2.66-3.48,1.07-.17,2,.62,2.91,2.31a.62.62,0,0,1-1.11.57c-.57-1.12-1.16-1.73-1.62-1.66-.66.09-1.42,1.44-1.62,2.5A.63.63,0,0,1,133.06,282.46Z"/><line class="cls-12" x1="94.63" y1="195.92" x2="94.63" y2="256.3"/><path class="cls-47" d="M95.82,203.16c5.77-.09,10.4-3.15,10.34-6.84v-14l-20.89.46v13.89C85.33,200.34,90.06,203.25,95.82,203.16Z"/><path class="cls-57" d="M95.61,175.93c-5.77.09-10.4,3.15-10.34,6.84s4.78,6.6,10.55,6.5,10.4-3.15,10.34-6.84S101.38,175.84,95.61,175.93Z"/><polygon class="cls-47" points="96.08 170.59 75.28 182.6 96.08 194.61 116.88 182.6 96.08 170.59"/><polygon class="cls-58" points="116.88 182.6 116.88 183.1 96.08 195.11 96.08 194.61 116.88 182.6"/><polygon class="cls-50" points="96.08 195.11 75.28 183.1 75.28 182.6 96.08 194.61 96.08 195.11"/><path class="cls-58" d="M78.88,181.91a1.46,1.46,0,0,0-1.08.51,2.37,2.37,0,0,0-.53,1.64v4.45a.78.78,0,0,0-.48.71v5.63a.77.77,0,0,0,1.53,0v-5.63a.75.75,0,0,0-.55-.72v-4.44a2,2,0,0,1,.4-1.31,1,1,0,0,1,.71-.35c.17,0,.33.06.33.17a.25.25,0,0,0,.25.25.25.25,0,0,0,.25-.25C79.71,182.19,79.36,181.91,78.88,181.91Z"/><path class="cls-20" d="M92.36,260h-.12a.61.61,0,0,1-.49-.72c.2-1,1.11-3.27,2.66-3.49,1.06-.16,2,.63,2.9,2.32A.62.62,0,0,1,97,259a.61.61,0,0,1-.83-.27c-.58-1.12-1.16-1.73-1.63-1.66-.65.1-1.42,1.45-1.62,2.5A.6.6,0,0,1,92.36,260Z"/><line class="cls-12" x1="51.6" y1="171.44" x2="51.6" y2="232.35"/><path class="cls-59" d="M42.74,153.9c4.64-7.84,12.47-11.78,17.47-8.81l2.29,1.32-17,28.26-2.12-1.22C38.38,170.48,38.09,161.73,42.74,153.9Z"/><ellipse class="cls-60" cx="53.92" cy="160.49" rx="16.49" ry="10.54" transform="translate(-111.61 124.95) rotate(-59.31)"/><path class="cls-61" d="M61.87,165.21c-4.08,6.88-10.95,10.34-15.34,7.73s-4.65-10.3-.57-17.18S56.91,145.42,61.31,148,66,158.33,61.87,165.21Z"/><path class="cls-62" d="M61.31,148a5.12,5.12,0,0,0-.53-.25c3.92,2.87,4,10.22.09,16.83s-10.42,10.06-14.82,8a4.14,4.14,0,0,0,.48.34c4.39,2.61,11.26-.85,15.34-7.73S65.7,150.64,61.31,148Z"/><path class="cls-47" d="M54.65,160.68a.42.42,0,0,1-.21-.06.45.45,0,0,1-.19-.62l5.58-10.47a.46.46,0,0,1,.82.43l-5.59,10.47A.45.45,0,0,1,54.65,160.68Z"/><path class="cls-47" d="M52,170.41h-.12a.46.46,0,0,1-.32-.57l2.61-9.73a.46.46,0,0,1,.56-.33.45.45,0,0,1,.33.56l-2.61,9.74A.46.46,0,0,1,52,170.41Z"/><path class="cls-63" d="M53.32,160.08c.55-.94,1.49-1.41,2.09-1.06l.27.16-2,3.38-.26-.14C52.8,162.06,52.76,161,53.32,160.08Z"/><path class="cls-19" d="M55.74,161.51c-.56.93-1.49,1.41-2.09,1.05s-.63-1.4-.08-2.34,1.49-1.41,2.09-1.05S56.29,160.57,55.74,161.51Z"/><path class="cls-63" d="M54.3,153c-.11.06-.19,0-.19-.14v-3.17a.44.44,0,0,1,.19-.36c.11-.06.2,0,.2.14v3.16A.46.46,0,0,1,54.3,153Z"/><path class="cls-63" d="M51.43,155.69a.12.12,0,0,1-.17,0l-1.22-2a.35.35,0,0,1,.07-.38c.09-.13.21-.16.26-.07l1.23,2a.42.42,0,0,1-.07.39A.41.41,0,0,1,51.43,155.69Z"/><path class="cls-63" d="M49.33,159.62a.2.2,0,0,1-.1,0l-2.12-.36c-.1,0-.13-.16-.07-.31s.17-.26.26-.24l2.12.36c.1,0,.13.15.07.3A.45.45,0,0,1,49.33,159.62Z"/><path class="cls-63" d="M48.56,163.77l-2.45,1.41c-.11.06-.2,0-.2-.14a.44.44,0,0,1,.2-.36l2.45-1.41c.1-.06.19,0,.19.14A.46.46,0,0,1,48.56,163.77Z"/><path class="cls-63" d="M47.21,169.85c-.07,0-.14,0-.17,0a.37.37,0,0,1,.07-.39l2.12-2.8c.09-.12.21-.15.26-.06a.37.37,0,0,1-.07.39l-2.12,2.8A.38.38,0,0,1,47.21,169.85Z"/><path class="cls-63" d="M50.2,172a.1.1,0,0,1-.09,0c-.1,0-.13-.15-.07-.3l1.22-3.45c.05-.15.17-.26.27-.24s.12.15.07.3l-1.23,3.45A.39.39,0,0,1,50.2,172Z"/><path class="cls-63" d="M54.3,171.06c-.11.06-.19,0-.19-.14v-3.17a.45.45,0,0,1,.19-.36c.11-.06.2,0,.2.14v3.17A.46.46,0,0,1,54.3,171.06Z"/><path class="cls-63" d="M58.4,167.28a.12.12,0,0,1-.17,0l-1.22-2a.37.37,0,0,1,.07-.39c.09-.12.21-.15.26-.06l1.23,2a.4.4,0,0,1-.07.38A.41.41,0,0,1,58.4,167.28Z"/><path class="cls-63" d="M61.4,161.68a.13.13,0,0,1-.1,0l-2.12-.36c-.09,0-.13-.15-.07-.31s.17-.26.27-.24l2.12.36c.09,0,.12.15.07.31A.5.5,0,0,1,61.4,161.68Z"/><path class="cls-63" d="M62.5,155.75l-2.45,1.41c-.11.06-.2,0-.2-.14a.48.48,0,0,1,.2-.37l2.45-1.41c.1-.06.19,0,.19.14A.48.48,0,0,1,62.5,155.75Z"/><path class="cls-63" d="M59.28,153.89a.12.12,0,0,1-.17,0,.39.39,0,0,1,.07-.39l2.12-2.8c.09-.12.21-.15.27-.06a.4.4,0,0,1-.07.38l-2.12,2.81Z"/><path class="cls-63" d="M57.17,152.38a.1.1,0,0,1-.09,0c-.1,0-.13-.15-.07-.3l1.22-3.45c.05-.15.17-.26.27-.24s.12.15.07.3l-1.23,3.45A.39.39,0,0,1,57.17,152.38Z"/><path class="cls-20" d="M49.66,235.89h-.11a.62.62,0,0,1-.5-.72c.2-1,1.11-3.27,2.66-3.49,1.07-.16,2,.63,2.91,2.32a.62.62,0,0,1-.27.83.61.61,0,0,1-.83-.27c-.58-1.11-1.16-1.73-1.63-1.65-.65.09-1.42,1.44-1.62,2.49A.62.62,0,0,1,49.66,235.89Z"/><line class="cls-12" x1="11.39" y1="149.98" x2="11.39" y2="209.17"/><path class="cls-17" d="M3.24,131.81c4.56-7.68,12.22-11.54,17.13-8.63l2,1.15L5.67,152,3.87,151C-1,148.07-1.32,139.48,3.24,131.81Z"/><path class="cls-19" d="M22.8,143.4c-4.55,7.67-12.22,11.54-17.13,8.63S.49,140.53,5,132.86s12.23-11.55,17.13-8.63S27.36,135.72,22.8,143.4Z"/><g class="cls-1"><polygon class="cls-64" points="18.95 134.59 17.6 133.81 17.61 136.99 18.96 137.78 18.95 134.59"/><polygon class="cls-65" points="23.36 130.13 22.02 129.35 19.25 130.95 20.59 131.73 23.36 130.13"/><polygon class="cls-64" points="16.17 134.29 14.83 133.5 14.83 135.41 16.18 136.19 16.17 134.29"/><polygon class="cls-65" points="18.94 132.69 17.6 131.91 14.83 133.5 16.17 134.29 18.94 132.69"/><polygon class="cls-64" points="18.93 129.5 17.59 128.72 17.6 131.91 18.94 132.69 18.93 129.5"/><polygon class="cls-65" points="20.59 128.55 19.24 127.77 17.59 128.72 18.93 129.5 20.59 128.55"/><polygon class="cls-66" points="18.93 129.5 18.94 132.69 16.17 134.29 16.18 136.19 18.95 134.59 18.96 137.78 20.61 136.82 20.6 133.63 23.37 132.03 23.36 130.13 20.59 131.73 20.59 128.55 18.93 129.5"/></g><g class="cls-1"><polygon class="cls-65" points="9.39 132.51 8.04 131.73 7.07 132.64 8.41 133.43 9.39 132.51"/><polygon class="cls-64" points="8.41 133.43 7.07 132.64 9.67 138.87 11.02 139.65 8.41 133.43"/><polygon class="cls-66" points="9.39 132.51 8.41 133.43 11.02 139.65 11.99 138.74 9.39 132.51"/></g><g class="cls-1"><polygon class="cls-67" points="12.12 145.96 10.77 145.18 12.28 146.76 13.62 147.54 12.12 145.96"/><polygon class="cls-64" points="10.86 145.21 9.51 144.42 7.07 149.77 8.41 150.55 10.86 145.21"/><polygon class="cls-65" points="15.51 139.1 14.16 138.32 11.84 139.66 13.18 140.45 15.51 139.1"/><polygon class="cls-64" points="13.18 140.45 11.84 139.66 10.71 142.31 12.06 143.09 13.18 140.45"/><polygon class="cls-67" points="8.77 142.99 7.43 142.21 9.51 144.42 10.86 145.21 8.77 142.99"/><polygon class="cls-65" points="10.96 141.73 9.62 140.94 7.43 142.21 8.77 142.99 10.96 141.73"/><polygon class="cls-66" points="8.77 142.99 10.86 145.21 8.41 150.55 10.73 149.21 12.12 145.96 13.62 147.54 15.92 146.21 13.39 143.74 15.51 139.1 13.18 140.45 12.06 143.09 10.96 141.73 8.77 142.99"/></g><g class="cls-1"><polygon class="cls-64" points="17.73 142.97 16.39 142.19 16.39 144.25 17.74 145.03 17.73 142.97"/><polygon class="cls-65" points="21.39 140.86 20.05 140.08 16.39 142.19 17.73 142.97 21.39 140.86"/><polygon class="cls-66" points="17.73 142.97 17.74 145.03 21.4 142.91 21.39 140.86 17.73 142.97"/></g><path class="cls-20" d="M9.19,213H9.08a.62.62,0,0,1-.5-.72c.2-1,1.11-3.27,2.66-3.49,1.07-.16,2,.63,2.91,2.32a.62.62,0,1,1-1.1.56c-.58-1.12-1.17-1.73-1.63-1.66-.65.1-1.42,1.44-1.62,2.5A.63.63,0,0,1,9.19,213Z"/></g></g></g></svg>